<?xml version="1.0" encoding="UTF-8" standalone="no"?>
<!-- Created with Inkscape (http://www.inkscape.org/) -->

<svg
   xmlns:dc="http://purl.org/dc/elements/1.1/"
   xmlns:cc="http://creativecommons.org/ns#"
   xmlns:rdf="http://www.w3.org/1999/02/22-rdf-syntax-ns#"
   xmlns:svg="http://www.w3.org/2000/svg"
   xmlns="http://www.w3.org/2000/svg"
   xmlns:sodipodi="http://sodipodi.sourceforge.net/DTD/sodipodi-0.dtd"
   xmlns:inkscape="http://www.inkscape.org/namespaces/inkscape"
   version="1.1"
   id="svg2"
   width="1500"
   height="1500"
   viewBox="0 0 1500 1500"
   sodipodi:docname="Logo.svg"
   inkscape:version="0.92.4 (unknown)">
  <metadata
     id="metadata8">
    <rdf:RDF>
      <cc:Work
         rdf:about="">
        <dc:format>image/svg+xml</dc:format>
        <dc:type
           rdf:resource="http://purl.org/dc/dcmitype/StillImage" />
        <dc:title></dc:title>
      </cc:Work>
    </rdf:RDF>
  </metadata>
  <defs
     id="defs6" />
  <sodipodi:namedview
     pagecolor="#ffffff"
     bordercolor="#666666"
     borderopacity="1"
     objecttolerance="10"
     gridtolerance="10"
     guidetolerance="10"
     inkscape:pageopacity="0"
     inkscape:pageshadow="2"
     inkscape:window-width="1920"
     inkscape:window-height="1015"
     id="namedview4"
     showgrid="false"
     inkscape:zoom="0.44500587"
     inkscape:cx="744.70081"
     inkscape:cy="573.82494"
     inkscape:window-x="0"
     inkscape:window-y="0"
     inkscape:window-maximized="1"
     inkscape:current-layer="svg2" />
  <path
     style="fill:#000000;fill-opacity:1;stroke-width:1.58898306"
     d="m 80.282108,848.43989 c -58.980292,-0.33682 -75.0794504,-0.85683 -75.0794504,-2.42512 0,-1.09801 2.437873,-11.67588 5.4174964,-23.50637 14.423711,-57.26887 39.897702,-102.59843 79.030274,-140.62998 48.868912,-47.49394 113.288742,-78.87039 201.569182,-98.17668 26.69617,-5.83826 34.58039,-6.81984 32.4481,-4.03976 -0.93885,1.22409 -8.91668,11.16365 -17.72851,22.08791 l -16.02149,19.86228 -29.59265,10.90324 c -74.63423,27.49851 -109.74935,52.88555 -144.21935,104.26568 -10.3409,15.41389 -33.042882,58.90194 -33.042882,63.29714 0,1.47452 15.3495,1.82244 66.340042,1.50371 l 66.34004,-0.41468 1.15259,-14.99701 c 2.34068,-30.45598 11.58717,-64.94121 24.7374,-92.25935 6.86892,-14.26944 17.73246,-32.38391 18.78807,-31.3283 0.34457,0.34458 -0.80689,6.38578 -2.55883,13.42489 -6.59711,26.50658 -9.85755,50.02184 -9.97308,71.92884 -0.13904,26.37168 1.36837,34.44478 13.26656,71.04856 5.17397,15.91729 9.40721,29.32433 9.40721,29.79343 0,0.46912 -25.92029,0.68133 -57.60064,0.47161 -31.68035,-0.20973 -91.38638,-0.57424 -132.680082,-0.81004 z M 249.14072,830.08381 c -2.83376,-6.78211 -6.46966,-26.78952 -9.5864,-52.7513 -1.36392,-11.36122 -2.8664,-22.43428 -3.33884,-24.60678 -1.49695,-6.88383 -3.13819,-0.67209 -7.01059,26.53339 -2.01675,14.16876 -4.19728,26.61963 -4.84559,27.66865 -0.88023,1.42424 -20.71722,2.09803 -78.32714,2.66051 l -77.14837,0.75326 3.261004,-11.73756 c 26.221274,-94.38007 93.155746,-157.0445 197.623546,-185.01631 13.54891,-3.6278 14.79217,-4.33509 23.64542,-13.45182 5.1395,-5.29247 9.03081,-9.93642 8.64735,-10.31988 -0.38347,-0.38347 -11.52464,2.12776 -24.75818,5.5805 -107.60987,28.07629 -182.531132,81.37238 -225.797276,160.62346 -10.828055,19.83388 -28.824183,68.0359 -28.824183,77.20462 0,1.72895 20.461148,2.10585 114.325699,2.10585 h 114.32571 z"
     id="path169"
     inkscape:connector-curvature="0" />
  <path
     style="fill:#000000;fill-opacity:1;stroke-width:1.58898306"
     d="m 366.54496,902.8858 c -84.9133,-18.47437 -134.82101,-141.70867 -92.76069,-229.04874 20.31832,-42.19189 59.02934,-67.50509 112.79283,-73.75543 71.5228,-8.31496 130.93869,43.83277 145.58584,127.7768 3.6209,20.75165 2.24603,52.11064 -3.2051,73.10512 -14.41253,55.5082 -53.98766,92.11696 -110.17291,101.91485 -16.42805,2.86481 -39.09179,2.86803 -52.23997,0.008 z m 50.92274,-20.71156 c 50.3668,-8.78325 85.04598,-41.13836 98.74752,-92.12986 4.56819,-17.00091 4.24257,-56.92704 -0.62126,-76.17576 -12.43117,-49.19658 -45.48631,-85.80748 -87.72181,-97.15811 -22.68019,-6.09522 -57.70903,-2.47788 -84.33464,8.70901 -56.30215,23.65565 -83.05755,89.05804 -64.85791,158.54226 7.77406,29.68052 23.18461,55.79948 43.52518,73.76978 26.59728,23.49793 56.57416,31.18942 95.26292,24.44268 z"
     id="path984"
     inkscape:connector-curvature="0" />
  <path
     style="fill:#000000;fill-opacity:1;stroke-width:1.58898306"
     d="m 374.64122,870.36255 c -54.12046,-11.79539 -92.07001,-72.1726 -86.35228,-137.38528 3.54171,-40.39444 28.71661,-74.82306 64.6693,-88.44025 12.87415,-4.87612 35.88769,-9.37784 47.9012,-9.37002 60.10862,0.0391 106.75038,53.01702 106.97625,121.50873 0.0901,27.32221 -5.51588,47.26041 -19.08335,67.87157 -13.59974,20.66018 -36.98552,36.86503 -62.46917,43.28711 -12.06,3.03922 -42.46697,4.52779 -51.64195,2.52814 z m 41.29224,-18.29393 c 47.62576,-9.11231 78.17864,-51.50362 75.00919,-104.07318 -3.69266,-61.24768 -46.42387,-104.38375 -98.60025,-99.53446 -44.41844,4.12826 -75.98787,29.23346 -85.97936,68.37404 -12.47101,48.85377 10.10216,106.95262 49.98898,128.66175 16.05925,8.74054 36.47643,10.99256 59.58144,6.57185 z"
     id="path986"
     inkscape:connector-curvature="0" />
  <path
     style="fill:#000000;fill-opacity:1;stroke-width:1.58898306"
     d="m 525.3934,838.89169 c 2.09587,-4.14356 5.96369,-13.96913 8.59514,-21.8346 16.83082,-50.30761 12.02518,-100.63841 -14.56493,-152.54237 -3.58172,-6.99153 -6.77395,-13.29897 -7.09385,-14.01655 -1.65474,-3.7118 16.12106,7.71001 21.4878,13.80695 11.64445,13.2288 27.64757,50.76074 44.37174,104.06457 l 7.65737,24.40583 20.72143,-0.97983 c 11.39678,-0.5389 70.77439,-2.41364 131.95024,-4.16607 61.17585,-1.75244 117.74348,-3.59414 125.70585,-4.09268 l 14.47705,-0.90642 6.78522,-23.30578 c 18.37221,-63.10455 31.64689,-93.40015 49.10149,-112.05984 5.00165,-5.34699 16.19313,-13.73535 18.32525,-13.73535 0.40687,0 -1.79223,4.46901 -4.88694,9.93114 -3.09469,5.46213 -8.37128,16.36653 -11.72579,24.23199 -20.54258,48.1673 -20.01022,93.39728 1.73748,147.61516 3.47016,8.65127 5.9924,16.04657 5.60496,16.43401 -0.95469,0.95468 -72.27413,3.38976 -313.17542,10.69283 -41.94915,1.27171 -83.60924,2.68987 -92.57798,3.15149 l -16.30679,0.83927 z m 216.3029,-14.06983 c 99.62924,-1.45028 181.3709,-2.82575 181.64815,-3.0566 0.27724,-0.23084 -1.33987,-4.05856 -3.59357,-8.50605 -5.78536,-11.41684 -8.84393,-27.71138 -9.94994,-53.00826 -0.52538,-12.01669 -1.47235,-21.84852 -2.10439,-21.84852 -1.43137,0 -7.03257,12.94958 -9.27851,21.45127 -0.92349,3.49576 -2.16002,12.18698 -2.74782,19.31382 l -1.06875,12.95789 -20.83817,0.95405 c -17.81066,0.81544 -103.86269,3.23449 -231.37844,6.50441 -17.91578,0.45941 -40.17639,1.23717 -49.46802,1.72835 l -16.89387,0.89306 -1.88504,-8.46393 c -4.29841,-19.30002 -10.26528,-36.37674 -14.4576,-41.37649 -2.40874,-2.87266 -4.81504,-4.79768 -5.34732,-4.27782 -0.53229,0.51986 -0.16488,6.59772 0.81645,13.50636 2.21506,15.59415 0.86007,37.38027 -3.30133,53.08022 -1.73734,6.55455 -3.17106,12.09613 -3.18603,12.31461 -0.0435,0.63423 2.94726,0.60067 193.0342,-2.16637 z"
     id="path988"
     inkscape:connector-curvature="0" />
  <path
     style="fill:#000000;fill-opacity:1;stroke-width:1.58898306"
     d="m 593.92088,653.44211 c -0.87394,-0.33354 -6.47176,-1.08051 -12.43959,-1.65995 -5.96784,-0.57943 -10.48204,-1.42209 -10.03155,-1.87256 0.45048,-0.4505 14.82862,-2.86613 31.95144,-5.36811 67.30959,-9.83524 111.79609,-19.15338 133.65237,-27.99482 l 10.99869,-4.44926 62.76483,-0.80406 62.76483,-0.80406 10.86775,-4.59557 c 25.69295,-10.8646 47.06055,-28.42175 79.96883,-65.70815 12.92395,-14.64333 31.90497,-35.22851 42.17992,-45.74484 l 18.682,-19.1206 -24.4996,-25.52203 -24.49951,-25.52203 27.30491,-1.03578 c 15.0177,-0.56967 36.0743,-1.03796 46.7924,-1.04063 l 19.4874,-0.005 4.4311,4.95919 4.431,4.95919 6.5531,-3.34316 c 10.2964,-5.25279 28.8366,-9.73145 46.7501,-11.29311 59.9214,-5.22384 137.9757,19.67218 223.0124,71.13151 16.5178,9.99563 32.864,21.22031 32.0654,22.01889 -0.3022,0.30219 -8.5562,-2.30674 -18.3423,-5.79762 -53.2846,-19.0077 -102.5561,-26.70022 -159.8518,-24.95692 -66.5337,2.02439 -103.4235,10.31091 -133.5714,30.00401 -7.9744,5.20901 -22.9821,18.35478 -40.48,35.45777 -48.64085,47.54333 -74.68343,66.01612 -121.89472,86.46367 l -22.34145,9.67624 -82.41048,0.0315 c -45.32576,0.0173 -87.05825,0.70381 -92.73887,1.52554 -34.42631,4.97994 -117.20972,12.06984 -121.5572,10.41065 z M 748.3097,632.73533 c 9.81696,-1.87852 26.33879,-2.38326 78.01864,-2.38348 l 65.56424,-2.7e-4 25.17613,-12.60661 c 42.92126,-21.49222 74.50844,-44.65587 113.12359,-82.95642 23.5293,-23.33755 35.4733,-32.62173 53.72,-41.75707 39.161,-19.60619 78.3053,-25.81594 153.1494,-24.29527 24.2519,0.49275 44.0943,0.54154 44.0943,0.10843 0,-1.795 -40.529,-19.9945 -56.2156,-25.24359 -25.7594,-8.61962 -42.4095,-11.8704 -66.294,-12.94329 -30.1508,-1.35437 -56.666,2.61881 -97.755,14.64814 -2.9106,0.85211 -3.7705,-0.1318 -6.3259,-7.23833 -2.9243,-8.13213 -3.0203,-8.21409 -8.549,-7.29916 -3.0753,0.50893 -13.2781,0.93319 -22.673,0.94281 -9.3949,0.01 -17.0816,0.65556 -17.0816,1.43544 0,0.77987 8.9046,8.72313 19.7879,17.65168 l 19.7879,16.23374 -9.695,11.34725 c -27.3802,32.04659 -55.73565,62.9102 -76.19128,82.93075 -32.12968,31.44627 -46.70946,42.12511 -70.47969,51.62221 l -12.71187,5.07887 -61.96609,1.37665 c -55.74965,1.23854 -62.68384,1.68349 -69.12077,4.43528 -3.93506,1.68224 -13.05376,4.31865 -20.26377,5.85866 -7.21001,1.54001 -13.10911,3.3933 -13.10911,4.1184 0,2.16418 22.63263,1.49492 36.00958,-1.06482 z"
     id="path990"
     inkscape:connector-curvature="0" />
  <path
     style="fill:#000000;fill-opacity:1;stroke-width:1.58898306"
     d="m 527.52132,618.37413 c -12.75159,-2.536 -25.27635,-8.00647 -32.69612,-14.28075 l -5.34568,-4.5204 41.0978,-7.45495 c 153.25906,-27.80055 219.82332,-47.96236 259.73092,-78.67055 22.57436,-17.37058 34.31987,-32.12945 71.79979,-90.22035 27.67306,-42.89104 45.8821,-68.97667 67.69434,-96.97647 17.37051,-22.29806 49.46376,-60.28901 50.25848,-59.49431 0.2905,0.29052 -2.27792,9.82026 -5.70763,21.17719 -7.52667,24.92344 -13.36106,50.59924 -15.88532,69.90745 -2.66971,20.42083 -1.08188,56.95182 3.17703,73.09322 3.47831,13.18295 11.90811,32.51946 17.75919,40.73653 1.85343,2.60285 3.11303,4.92221 2.79923,5.15414 -0.3138,0.23191 -13.26416,5.85061 -28.77852,12.48598 -26.98128,11.53968 -28.23837,11.91468 -28.90856,8.62349 -0.38537,-1.89245 -1.46167,-12.1896 -2.3918,-22.88257 -2.07909,-23.90193 -4.21544,-34.25628 -8.03321,-38.9351 -3.32149,-4.07063 -2.64545,-5.1832 -7.9544,13.09083 -19.37726,66.69884 -76.52961,113.36954 -162.24271,132.48768 -9.94822,2.21892 -35.60621,6.94503 -57.01776,10.50245 -42.55818,7.07081 -55.52052,10.57838 -79.19261,21.42928 l -15.68725,7.19076 -26.84503,-0.14936 c -15.50847,-0.0863 -31.39956,-1.0551 -37.63018,-2.29424 z m 72.93891,-15.11411 c 32.61224,-11.98058 54.89646,-17.59714 125.62182,-31.66202 51.48629,-10.23889 77.83667,-20.40811 104.07075,-40.16333 30.70822,-23.12444 56.41481,-60.88538 76.67105,-112.62371 3.75704,-9.59618 7.46763,-17.58707 8.24578,-17.75752 0.77815,-0.17045 3.74822,5.53618 6.60017,12.68141 5.99048,15.00844 9.88699,37.88054 9.9006,58.11567 0.005,7.64698 0.40664,13.9036 0.89219,13.9036 0.48556,0 7.5647,-3.93249 15.73145,-8.73888 l 14.84864,-8.7389 -5.23968,-5.23967 c -14.89809,-14.8981 -17.55074,-61.75435 -7.02335,-124.06029 1.7531,-10.37554 2.84352,-19.20853 2.42317,-19.62888 -1.97514,-1.97514 -44.03886,57.79659 -83.55998,118.73713 -31.32462,48.30177 -40.02152,60.14568 -55.12772,75.07597 -32.66197,32.28165 -74.88793,47.64113 -210.26585,76.48316 -26.65519,5.67885 -51.15329,10.80694 -54.44022,11.39579 -7.53528,1.3499 -8.9886,3.50153 -3.2254,4.77519 2.43908,0.53905 5.14973,1.27119 6.02367,1.627 0.87394,0.35578 9.89451,0.33335 20.04571,-0.0499 13.6312,-0.51461 20.90141,-1.59488 27.8072,-4.13182 z"
     id="path992"
     inkscape:connector-curvature="0" />
  <path
     style="fill:#000000;fill-opacity:1;stroke-width:1.58898306"
     d="m 652.60756,525.05427 c 0.40463,-1.95141 1.52565,-8.55332 2.49116,-14.67091 4.07435,-25.8155 14.40057,-50.6355 29.08783,-69.91525 23.00338,-30.19619 63.56107,-51.86175 112.96959,-60.34734 16.32618,-2.80392 59.47757,-6.38899 60.81405,-5.0525 1.57926,1.57924 -34.39106,85.58855 -41.68054,97.34566 -13.5438,21.84464 -26.05303,29.66689 -63.15887,39.49442 -29.7667,7.88375 -49.11361,11.63243 -69.75155,13.51516 -9.87476,0.90083 -21.00359,1.98459 -24.73074,2.40834 -6.33903,0.7207 -6.72912,0.54133 -6.04093,-2.77758 z m 54.89606,-15.51999 c 35.14048,-5.38594 54.42572,-9.49185 63.14088,-13.44295 10.03364,-4.54885 22.94698,-16.23696 29.85411,-27.02153 5.59834,-8.74105 38.2715,-81.42195 37.1202,-82.57325 -1.26688,-1.26688 -30.19051,5.33791 -49.04751,11.20012 -46.50893,14.45859 -77.43626,36.89135 -91.97764,66.71489 -4.99659,10.24772 -11.69142,31.47895 -13.36888,42.39659 -1.09247,7.1102 -2.95812,6.90072 24.27884,2.72613 z"
     id="path994"
     inkscape:connector-curvature="0" />
  <path
     style="fill:#000000;fill-opacity:1;stroke-width:1.58898306"
     d="m 1033.8499,884.71958 c -36.69705,-9.94818 -67.32501,-38.6757 -85.0381,-79.76159 -28.60714,-66.35485 -16.09762,-140.55992 30.12272,-178.68461 23.35408,-19.26359 52.80408,-29.90152 88.53218,-31.97961 47.1844,-2.74445 88.062,21.61584 111.0899,66.20215 14.8116,28.67795 20.832,56.21382 19.4653,89.02939 -2.8213,67.74443 -40.3312,117.66018 -100.3934,133.59731 -18.6205,4.94083 -48.6683,5.6932 -63.7786,1.59696 z m 61.718,-17.42117 c 41.8844,-10.94405 70.0844,-38.8011 83.3582,-82.3442 3.8392,-12.59404 4.2691,-16.49424 4.3428,-39.40136 0.096,-29.76409 -2.8977,-44.83332 -13.3264,-67.08768 -23.207,-49.52244 -65.4648,-74.7994 -115.236,-68.92957 -53.0644,6.25823 -89.4115,34.87199 -103.88196,81.77955 -15.84285,51.35632 2.18187,118.71326 41.22171,154.04233 13.24645,11.98739 33.48755,22.16732 50.76225,25.5301 8.7872,1.71052 40.8156,-0.46832 52.7594,-3.58917 z"
     id="path996"
     inkscape:connector-curvature="0" />
  <path
     style="fill:#000000;fill-opacity:1;stroke-width:1.58898306"
     d="m 1039.8091,850.40282 c -14.5926,-4.10355 -27.2907,-11.89147 -40.03325,-24.55285 -17.042,-16.93341 -27.79161,-36.68654 -34.31238,-63.0512 -3.68248,-14.88893 -3.69913,-45.46928 -0.0323,-59.35397 9.73896,-36.8773 36.87263,-63.74038 73.98383,-73.24588 39.573,-10.13605 70.432,-2.74352 96.5313,23.12478 10.7851,10.68971 14.0756,15.24899 20.1181,27.87534 15.9377,33.30314 17.9545,66.66084 6.1116,101.08753 -10.7393,31.21878 -34.1383,54.22658 -66.1518,65.04559 -16.0119,5.41125 -42.7065,6.86941 -56.2151,3.07066 z m 49.8744,-12.89917 c 40.6309,-10.35931 66.389,-43.65812 68.7201,-88.8378 2.6811,-51.9634 -27.445,-98.94463 -69.6922,-108.68417 -11.4526,-2.64026 -33.0657,-1.99359 -46.274,1.3845 -36.3658,9.30082 -59.68235,33.22564 -67.01653,68.76481 -11.94718,57.8923 23.31698,121.18745 72.34753,129.85565 10.5292,1.86148 29.2176,0.7544 41.9151,-2.48299 z"
     id="path998"
     inkscape:connector-curvature="0" />
  <path
     style="fill:#000000;fill-opacity:1;stroke-width:1.58898306"
     d="m 1196.2572,823.22617 c 11.7396,-12.21808 17.1863,-23.78786 17.9093,-38.04291 0.3129,-6.16938 -0.198,-13.99464 -1.1353,-17.38947 -0.9374,-3.39483 -1.4129,-6.46386 -1.0567,-6.82008 0.3563,-0.35621 64.6377,9.60759 142.8477,22.14179 78.2099,12.53419 141.9983,22.99107 141.7519,23.23751 -0.5393,0.53927 -40.964,3.98401 -171.7211,14.63301 -54.1843,4.41283 -105.9703,8.73052 -115.08,9.59487 -24.0273,2.27977 -23.2036,2.72796 -13.5158,-7.35472 z m 119.8564,-9.4702 c 51.1256,-4.03254 94.0281,-7.69649 95.339,-8.14212 5.1194,-1.74029 -6.2473,-3.79347 -90.572,-16.36027 -47.6298,-7.09819 -87.7517,-13.23721 -89.1598,-13.64226 -2.107,-0.60608 -2.7029,1.04085 -3.3661,9.30358 -0.955,11.89684 -3.3038,16.89217 -13.0284,27.70827 -3.9949,4.44335 -7.2635,8.57714 -7.2635,9.1862 0,0.60906 3.3964,0.69588 7.5476,0.19293 4.1513,-0.50294 49.3777,-4.21379 100.5032,-8.24633 z"
     id="path1000"
     inkscape:connector-curvature="0" />
  <path
     style="fill:#000000;fill-opacity:1;stroke-width:1.58898306"
     d="m 1009.0427,1031.1797 c -8.521,-0.2857 -15.48915,-1.0299 -15.48505,-1.6537 0,-0.6238 8.94215,-19.2692 19.86225,-41.43415 10.9201,-22.16499 19.8547,-40.57733 19.8547,-40.91631 0,-0.33898 -8.938,-0.61633 -19.8622,-0.61633 -10.9243,0 -19.86225,-0.34807 -19.86225,-0.77348 0,-0.42541 3.379,-7.57584 7.50895,-15.88983 l 7.509,-15.11635 h 38.6653 c 21.2659,0 38.389,0.53628 38.0514,1.19174 -0.3375,0.65545 -12.6934,27.11202 -27.4573,58.79237 -23.0328,49.42334 -27.3013,57.55344 -30.0679,57.26804 -1.7734,-0.1829 -10.196,-0.5663 -18.7169,-0.852 z"
     id="path1002"
     inkscape:connector-curvature="0" />
  <path
     style="fill:#000000;fill-opacity:1;stroke-width:1.58898306"
     d="m 1084.1221,947.4693 c 0,-0.3734 3.185,-7.70258 7.0777,-16.28708 l 7.0777,-15.60818 30.5636,-0.43261 c 16.81,-0.23793 30.181,-0.05 29.7133,0.41764 -0.4676,0.46764 -10.378,7.9915 -22.0231,16.71969 l -21.1728,15.86943 h -15.6182 c -8.59,0 -15.6182,-0.3055 -15.6182,-0.67889 z"
     id="path1004"
     inkscape:connector-curvature="0" />
  <path
     style="fill:#000000;fill-opacity:1;stroke-width:1.58898306"
     d="m 899.75795,1016.1227 c 4.24852,-8.9829 16.5844,-34.92366 27.41308,-57.64612 l 19.6885,-41.31356 20.48034,-1.14356 c 11.26418,-0.62895 20.78978,-0.83413 21.16798,-0.45594 0.3782,0.37819 -11.92665,26.63432 -27.34405,58.34695 l -28.03164,57.65933 -20.54939,0.4427 -20.54939,0.4428 z"
     id="path1006"
     inkscape:connector-curvature="0" />
  <path
     style="fill:#000000;fill-opacity:1;stroke-width:1.58898306"
     d="m 752.90656,1029.2829 c -5.55049,-6.1333 -3.63718,-11.8461 21.04788,-62.84624 19.40375,-40.08876 24.52875,-49.43823 27.56796,-50.29182 4.55534,-1.27941 39.48535,-1.71403 39.48535,-0.4913 0,0.48069 -9.29556,18.59752 -20.65678,40.25962 -11.36123,21.6621 -20.65678,40.54979 -20.65678,41.97265 0,4.50429 5.64031,5.87679 24.15022,5.87679 h 18.00321 l 22.20038,-44.49153 22.20038,-44.49152 h 21.07672 c 11.59218,0 21.06913,0.53628 21.05987,1.19174 -0.01,0.65545 -13.16728,26.57574 -29.24003,57.60063 l -29.22319,56.40888 -20.41569,1.0106 c -11.22863,0.5558 -36.9296,1.0921 -57.11327,1.1917 -34.4234,0.1699 -36.8704,-0.01 -39.48623,-2.9002 z"
     id="path1008"
     inkscape:connector-curvature="0" />
  <path
     style="fill:#000000;fill-opacity:1;stroke-width:1.58898306"
     d="m 637.61791,942.80291 c 0,-0.33837 1.74529,-4.56162 3.87842,-9.385 3.45354,-7.80906 4.71556,-9.09275 11.52013,-11.71785 6.90845,-2.66517 12.40645,-2.92646 57.29772,-2.72299 27.31081,0.12378 51.42285,0.6685 53.58231,1.21049 7.10742,1.78385 7.98093,6.46376 2.78481,14.91976 l -4.59603,7.47943 -62.23368,0.41569 c -34.22852,0.22863 -62.23368,0.13884 -62.23368,-0.19953 z"
     id="path1012"
     inkscape:connector-curvature="0" />
  <path
     style="fill:#000000;fill-opacity:1;stroke-width:1.58898306"
     d="m 678.93147,1039.038 c 0,-8.0115 -1.16714,-8.2627 -38.3896,-8.2627 h -34.57605 l -1.93292,-6.4515 c -1.9183,-6.4027 -1.82014,-6.6822 12.97568,-36.94386 8.19974,-16.77079 15.32512,-31.02053 15.8342,-31.66609 0.50907,-0.64556 8.8936,-0.71785 18.63227,-0.16064 l 17.70669,1.0131 -11.01496,21.98798 c -6.05823,12.09339 -11.01497,22.71261 -11.01497,23.59811 0,1.0152 8.71008,1.6102 23.57237,1.6102 h 23.57237 l 10.95858,-23.83475 10.95858,-23.83474 12.7413,0.11778 c 7.00771,0.0648 15.76513,0.60106 19.46093,1.19173 l 6.71963,1.07396 -16.07042,28.6017 c -21.48986,38.24702 -21.06485,37.13652 -18.07047,47.21962 1.33558,4.4974 2.42832,8.4048 2.42832,8.6832 0,0.2783 -10.01059,0.5061 -22.24576,0.5061 h -22.24577 z"
     id="path1014"
     inkscape:connector-curvature="0" />
  <path
     style="fill:#000000;fill-opacity:1;stroke-width:1.58898306"
     d="m 485.472,1030.8213 -35.35567,-0.8405 27.41075,-56.78819 27.41075,-56.78821 46.875,0.0178 46.875,0.0179 8.3509,12.67607 8.35092,12.67608 h -42.68031 -42.68031 l -15.11311,30.58792 c -8.31221,16.82336 -14.80934,31.12423 -14.43805,31.77963 0.37128,0.6555 19.70439,1.1918 42.96246,1.1918 h 42.28741 l -18.02508,13.5063 -18.02508,13.5064 -14.42496,-0.3513 c -7.93373,-0.1932 -30.33501,-0.7295 -49.78062,-1.1917 z"
     id="path1016"
     inkscape:connector-curvature="0" />
  <path
     style="fill:#000000;fill-opacity:1;stroke-width:1.58898306"
     d="m 527.58084,985.14567 c -2.40334,-0.36408 -4.36971,-1.03456 -4.36971,-1.48996 0,-0.45541 2.50689,-5.31075 5.57087,-10.78965 l 5.57086,-9.96164 19.45562,0.69011 c 10.70059,0.37956 20.09585,0.84803 20.87835,1.04104 0.78249,0.19302 -4.58032,5.13888 -11.91738,10.99081 -13.00642,10.37374 -13.55869,10.63414 -22.0795,10.41056 -4.80668,-0.12612 -10.70577,-0.5272 -13.10911,-0.89127 z"
     id="path1018"
     inkscape:connector-curvature="0" />
  <path
     style="fill:#000000;fill-opacity:1;stroke-width:1.58898306"
     d="m 291.12777,1011.3102 c 33.81972,-71.28882 39.43405,-80.08861 56.0251,-87.8125 13.27362,-6.17948 27.95687,-4.52277 37.24425,4.20227 1.89384,1.77917 9.00574,16.85147 15.80423,33.49399 l 12.36088,30.25914 18.53135,-37.03583 18.53134,-37.03583 18.12027,0.41816 c 9.96615,0.22999 18.34128,0.63918 18.61141,0.90931 0.27012,0.27013 -10.57669,22.55665 -24.10407,49.5256 -26.93476,53.69869 -26.78504,53.49789 -44.42503,59.59349 -9.64119,3.3317 -12.50428,3.5073 -20.58671,1.2628 -11.49014,-3.1909 -15.53533,-8.6882 -29.0838,-39.52428 -6.92096,-15.75199 -12.95408,-28.65495 -13.40693,-28.67323 -0.45285,-0.0183 -8.66285,15.6977 -18.24443,34.92439 l -17.42107,34.95762 h -18.59554 -18.59554 z"
     id="path1020"
     inkscape:connector-curvature="0" />
</svg>
